<svg width="1000" height="1000" viewBox="0 0 1000 1000" fill="none" xmlns="http://www.w3.org/2000/svg">
<path d="M214.609 704.812V355.203C214.609 294.005 227.37 240.49 252.891 194.656C278.411 148.562 313.958 112.755 359.531 87.2344C405.104 61.4531 458.229 48.5625 518.906 48.5625C578.021 48.5625 629.714 61.3229 673.984 86.8438C718.516 112.365 753.021 148.042 777.5 193.875C802.24 239.448 814.609 292.703 814.609 353.641C814.609 385.932 811.094 414.057 804.062 438.016C797.292 461.714 788.047 482.677 776.328 500.906C764.609 519.135 751.198 536.193 736.094 552.078C721.25 567.703 705.625 583.458 689.219 599.344C672.812 615.229 656.536 632.677 640.391 651.688C624.505 670.438 609.792 692.443 596.25 717.703L561.094 780.594C542.604 813.667 518.776 838.667 489.609 855.594C460.443 872.781 426.198 881.375 386.875 881.375C351.979 881.375 321.641 874.083 295.859 859.5C270.078 845.177 250.026 824.734 235.703 798.172C221.641 771.87 214.609 740.75 214.609 704.812ZM273.594 700.906C273.594 738.146 283.88 767.443 304.453 788.797C325.286 810.151 353.672 820.828 389.609 820.828C416.432 820.828 439.609 814.969 459.141 803.25C478.932 791.531 495.729 773.562 509.531 749.344L543.516 691.141C557.839 666.661 572.943 645.047 588.828 626.297C604.714 607.286 620.469 589.969 636.094 574.344C651.979 558.458 667.083 543.094 681.406 528.25C695.729 513.146 708.49 497.26 719.688 480.594C730.885 463.927 739.609 445.438 745.859 425.125C752.37 404.552 755.625 380.724 755.625 353.641C755.625 304.682 745.729 261.714 725.938 224.734C706.406 187.755 678.802 158.979 643.125 138.406C607.708 117.833 566.302 107.547 518.906 107.547C469.948 107.547 426.979 117.833 390 138.406C353.281 158.979 324.635 187.885 304.062 225.125C283.75 262.104 273.594 305.464 273.594 355.203V700.906ZM356.797 554.031C348.724 554.031 341.823 551.167 336.094 545.438C330.365 539.448 327.5 532.417 327.5 524.344V352.859C327.5 316.401 335.443 284.37 351.328 256.766C367.214 229.161 389.479 207.677 418.125 192.312C447.031 176.948 480.495 169.266 518.516 169.266C555.234 169.266 587.266 176.948 614.609 192.312C642.214 207.677 663.698 229.161 679.062 256.766C694.427 284.109 702.109 316.141 702.109 352.859C702.109 360.932 699.115 367.964 693.125 373.953C687.396 379.682 680.495 382.547 672.422 382.547C664.609 382.547 657.708 379.682 651.719 373.953C645.99 367.964 643.125 360.932 643.125 352.859C643.125 315.099 631.797 284.891 609.141 262.234C586.484 239.578 556.276 228.25 518.516 228.25C491.953 228.25 468.776 233.458 448.984 243.875C429.193 254.292 413.828 268.875 402.891 287.625C391.953 306.115 386.484 327.859 386.484 352.859V524.344C386.484 532.417 383.49 539.448 377.5 545.438C371.771 551.167 364.87 554.031 356.797 554.031ZM353.672 438.016V379.031H484.922C516.432 379.031 541.823 387.885 561.094 405.594C580.365 423.302 590 446.479 590 475.125C590 487.104 587.526 499.995 582.578 513.797C577.891 527.339 571.51 539.188 563.438 549.344L512.656 613.797C505.885 622.391 497.812 626.688 488.438 626.688C480.365 626.688 473.333 623.823 467.344 618.094C461.615 612.365 458.75 605.464 458.75 597.391C458.75 589.839 461.354 582.807 466.562 576.297L513.438 517.312C518.125 511.583 521.901 505.073 524.766 497.781C527.63 490.229 529.062 483.458 529.062 477.469C529.062 465.75 525.156 456.245 517.344 448.953C509.531 441.661 498.984 438.016 485.703 438.016H353.672Z" fill="black"/>
</svg>
