<svg width="1000" height="1000" viewBox="0 0 1000 1000" fill="none" xmlns="http://www.w3.org/2000/svg">
<path d="M201.08 718.734C185.504 709.8 173.593 699.493 165.347 687.811C157.101 676.129 152.978 658.033 152.978 633.524V361.404C152.978 343.537 156.299 328.763 162.942 317.081C169.813 305.17 180.579 295.092 195.239 286.846L438.154 148.724C458.999 136.813 479.614 130.857 500 130.857C520.386 130.857 540.887 136.813 561.502 148.724L804.761 286.846C819.192 295.092 829.728 305.17 836.371 317.081C843.243 328.763 846.679 343.537 846.679 361.404V633.524C846.679 658.033 842.556 676.129 834.31 687.811C826.293 699.493 814.382 709.8 798.577 718.734L528.518 871.973C518.668 877.471 509.048 880.219 499.656 880.219C490.494 880.219 481.103 877.471 471.482 871.973L201.08 718.734ZM232.003 673.38L472.857 810.471V525.295L205.203 372.399V631.806C205.203 641.198 207.15 649.1 211.044 655.514C214.938 661.927 221.924 667.883 232.003 673.38ZM767.997 673.38C777.847 667.883 784.719 661.927 788.613 655.514C792.507 649.1 794.454 641.198 794.454 631.806V372.399L526.8 525.295V810.471L767.997 673.38ZM500 477.192L606.168 417.065L340.92 266.23L234.751 327.045L500 477.192ZM661.486 385.798L765.249 327.045L538.825 197.857C513.171 182.968 487.287 182.968 461.175 197.857L395.206 235.308L661.486 385.798Z" fill="black"/>
</svg>
