<svg width="1000" height="1000" viewBox="0 0 1000 1000" fill="none" xmlns="http://www.w3.org/2000/svg">
<path d="M499.646 852.389C451.773 852.389 406.649 843.226 364.273 824.902C322.127 806.577 284.905 781.266 252.608 748.969C220.311 716.672 195 679.45 176.675 637.304C158.351 594.928 149.188 549.804 149.188 501.931C149.188 454.058 158.351 409.048 176.675 366.901C195 324.526 220.196 287.189 252.264 254.892C284.561 222.595 321.783 197.284 363.93 178.959C406.306 160.635 451.43 151.473 499.303 151.473C547.176 151.473 592.3 160.635 634.676 178.959C677.052 197.284 714.388 222.595 746.685 254.892C778.982 287.189 804.293 324.526 822.618 366.901C840.942 409.048 850.105 454.058 850.105 501.931C850.105 549.804 840.942 594.928 822.618 637.304C804.293 679.45 778.982 716.672 746.685 748.969C714.388 781.266 677.052 806.577 634.676 824.902C592.529 843.226 547.52 852.389 499.646 852.389ZM499.646 793.979C540.19 793.979 578.099 786.42 613.374 771.302C648.877 756.185 679.915 735.34 706.485 708.77C733.285 681.97 754.129 650.933 769.018 615.658C784.136 580.383 791.695 542.474 791.695 501.931C791.695 461.387 784.136 423.478 769.018 388.204C753.9 352.929 732.942 321.891 706.142 295.092C679.342 268.292 648.305 247.448 613.03 232.559C577.755 217.441 539.846 209.882 499.303 209.882C458.76 209.882 420.851 217.441 385.576 232.559C350.301 247.448 319.378 268.292 292.807 295.092C266.237 321.891 245.393 352.929 230.275 388.204C215.386 423.478 207.942 461.387 207.942 501.931C207.942 542.474 215.386 580.383 230.275 615.658C245.393 650.933 266.237 681.97 292.807 708.77C319.607 735.34 350.645 756.185 385.919 771.302C421.194 786.42 459.103 793.979 499.646 793.979ZM462.539 172.775V119.863C462.539 109.555 466.09 100.736 473.19 93.4064C480.52 85.8475 489.224 82.0681 499.303 82.0681C509.61 82.0681 518.315 85.8475 525.415 93.4064C532.516 100.736 536.067 109.555 536.067 119.863V172.775H462.539ZM713.701 246.99L751.495 209.882C759.283 202.323 768.675 198.544 779.669 198.544C789.748 198.544 798.109 201.98 804.751 208.851C811.623 215.494 815.059 223.626 815.059 233.246C815.059 243.554 810.936 252.831 802.69 261.077L764.895 299.558L713.701 246.99ZM499.646 557.592C484.071 557.592 470.9 552.209 460.134 541.443C449.597 530.448 444.329 517.392 444.329 502.274C444.329 491.509 447.192 481.774 452.919 473.069C458.645 464.136 466.204 457.15 475.595 452.111V281.692C475.595 275.049 477.886 269.437 482.467 264.856C487.048 260.275 492.66 257.984 499.303 257.984C506.175 257.984 511.901 260.275 516.482 264.856C521.063 269.437 523.354 275.049 523.354 281.692V452.454C532.974 457.035 540.648 463.793 546.374 472.726C552.101 481.43 554.964 491.279 554.964 502.274C554.964 517.621 549.581 530.677 538.815 541.443C528.05 552.209 514.993 557.592 499.646 557.592Z" fill="black"/>
</svg>
