<svg width="1000" height="1000" viewBox="0 0 1000 1000" fill="none" xmlns="http://www.w3.org/2000/svg">
<path d="M323.828 456.766C317.318 456.766 312.24 455.073 308.594 451.688C304.948 448.042 303.125 443.094 303.125 436.844C303.125 433.198 304.036 428.901 305.859 423.953L363.281 264.969C369.01 248.823 379.297 240.75 394.141 240.75C410.026 240.75 420.833 248.823 426.562 264.969L483.984 423.953C485.547 429.422 486.328 433.719 486.328 436.844C486.328 443.094 484.505 448.042 480.859 451.688C477.474 455.073 472.396 456.766 465.625 456.766C455.469 456.766 448.698 450.516 445.312 438.016L431.25 399.344H357.812L344.531 438.016C341.146 450.516 334.245 456.766 323.828 456.766ZM366.797 366.922H422.656L395.703 284.891H393.359L366.797 366.922ZM554.297 308.328C547.005 308.328 541.016 305.984 536.328 301.297C531.901 296.609 529.688 290.88 529.688 284.109C529.688 277.339 531.901 271.74 536.328 267.312C541.016 262.625 547.005 260.281 554.297 260.281H673.438C680.469 260.281 686.198 262.625 690.625 267.312C695.312 271.74 697.656 277.339 697.656 284.109C697.656 290.88 695.312 296.609 690.625 301.297C686.198 305.984 680.469 308.328 673.438 308.328H554.297ZM554.297 444.656C547.005 444.656 541.016 442.312 536.328 437.625C531.901 432.938 529.688 427.208 529.688 420.438C529.688 413.667 531.901 408.068 536.328 403.641C541.016 398.953 547.005 396.609 554.297 396.609H673.438C680.469 396.609 686.198 398.953 690.625 403.641C695.312 408.068 697.656 413.667 697.656 420.438C697.656 427.208 695.312 432.938 690.625 437.625C686.198 442.312 680.469 444.656 673.438 444.656H554.297ZM301.172 767.703V577.078C301.172 559.891 305.729 547 314.844 538.406C324.219 529.552 337.24 525.125 353.906 525.125H646.484C681.38 525.125 698.828 542.443 698.828 577.078V763.797H671.484L593.359 673.953C589.714 669.786 585.547 666.922 580.859 665.359C576.172 663.536 571.354 662.625 566.406 662.625C557.031 662.625 547.917 666.401 539.062 673.953L458.984 745.047L426.953 715.75C419.661 709.24 411.719 705.984 403.125 705.984C394.531 705.984 386.849 709.24 380.078 715.75L328.516 767.703H301.172ZM430.078 673.953C441.536 673.953 451.432 669.786 459.766 661.453C468.099 653.12 472.266 643.224 472.266 631.766C472.266 620.047 468.099 610.151 459.766 602.078C451.432 594.005 441.536 589.839 430.078 589.578C418.359 589.057 408.333 593.094 400 601.688C391.927 610.021 387.891 620.047 387.891 631.766C387.891 643.224 391.927 653.12 400 661.453C408.333 669.786 418.359 673.953 430.078 673.953ZM171.484 798.953V206.375C171.484 165.75 181.51 135.151 201.562 114.578C221.875 94.0052 252.214 83.7188 292.578 83.7188H707.422C747.786 83.7188 777.995 94.0052 798.047 114.578C818.359 135.151 828.516 165.75 828.516 206.375V798.953C828.516 839.839 818.359 870.438 798.047 890.75C777.995 911.062 747.786 921.219 707.422 921.219H292.578C252.214 921.219 221.875 911.062 201.562 890.75C181.51 870.438 171.484 839.839 171.484 798.953ZM234.375 797.781C234.375 817.312 239.453 832.286 249.609 842.703C260.026 853.12 275.391 858.328 295.703 858.328H704.297C724.609 858.328 739.844 853.12 750 842.703C760.417 832.286 765.625 817.312 765.625 797.781V207.547C765.625 188.016 760.417 173.042 750 162.625C739.844 151.948 724.609 146.609 704.297 146.609H295.703C275.391 146.609 260.026 151.948 249.609 162.625C239.453 173.042 234.375 188.016 234.375 207.547V797.781Z" fill="black"/>
</svg>
