<svg width="1000" height="1000" viewBox="0 0 1000 1000" fill="none" xmlns="http://www.w3.org/2000/svg">
<path d="M247.808 881.937C211.846 881.937 184.817 873.004 166.721 855.137C148.855 837.5 139.921 810.929 139.921 775.425V422.562C139.921 387.058 148.855 360.488 166.721 342.85C184.817 324.984 211.846 316.05 247.808 316.05H751.849C787.582 316.05 814.496 324.984 832.592 342.85C850.687 360.717 859.735 387.287 859.735 422.562V775.425C859.735 810.7 850.687 837.271 832.592 855.137C814.496 873.004 787.582 881.937 751.849 881.937H247.808ZM248.495 826.62H750.818C767.768 826.62 780.939 822.039 790.331 812.876C799.722 803.714 804.418 790.2 804.418 772.333V425.654C804.418 407.788 799.722 394.274 790.331 385.111C780.939 375.949 767.768 371.368 750.818 371.368H248.495C231.315 371.368 218.145 375.949 208.982 385.111C199.82 394.274 195.239 407.788 195.239 425.654V772.333C195.239 790.2 199.82 803.714 208.982 812.876C218.145 822.039 231.315 826.62 248.495 826.62ZM212.418 260.733C214.938 245.157 220.321 233.246 228.567 225C236.813 216.525 249.526 212.287 266.705 212.287H733.295C750.474 212.287 763.073 216.525 771.09 225C779.336 233.246 784.833 245.157 787.582 260.733H212.418ZM283.197 165.56C284.113 150.9 288.694 139.905 296.94 132.575C305.416 125.016 317.556 121.237 333.361 121.237H666.296C682.101 121.237 694.126 125.016 702.372 132.575C710.848 139.905 715.658 150.9 716.803 165.56H283.197ZM462.549 762.026C456.823 762.026 451.554 760.766 446.744 758.246C442.163 755.726 437.696 751.718 433.344 746.221L349.509 643.145C344.241 636.044 341.607 628.943 341.607 621.842C341.607 614.283 344.126 607.87 349.166 602.601C354.434 597.104 360.733 594.355 368.063 594.355C372.873 594.355 377.225 595.386 381.119 597.448C385.242 599.28 389.365 602.945 393.488 608.442L461.175 696.057L603.763 467.228C610.177 456.921 618.194 451.767 627.814 451.767C634.915 451.767 641.329 454.058 647.055 458.639C652.781 463.22 655.645 469.29 655.645 476.849C655.645 480.743 654.728 484.637 652.896 488.531C651.293 492.196 649.46 495.632 647.399 498.838L490.38 746.221C483.508 756.757 474.231 762.026 462.549 762.026Z" fill="black"/>
</svg>
